<?xml version="1.0" standalone="no"?><!DOCTYPE svg PUBLIC "-//W3C//DTD SVG 1.1//EN" "http://www.w3.org/Graphics/SVG/1.1/DTD/svg11.dtd" ><svg xmlns="http://www.w3.org/2000/svg"><metadata></metadata><defs><font id="fonteditor" horiz-adv-x="771"><font-face font-family="SNeNÿ[" font-weight="400" font-stretch="normal" units-per-em="1000" panose-1="2 1 6 0 4 1 1 1 1 1" ascent="986" descent="-315" x-height="1" bbox="-10 -260 754 693" underline-thickness="0" underline-position="0" unicode-range="U+0061-01dc" /><missing-glyph horiz-adv-x="1000"  /><glyph glyph-name="a" unicode="a" d="M399 63 L412 56 Q383 -16 332 -16 Q301 -16 283.5 1.5 Q266 19 266 52 Q211 10 184.5 -3 Q158 -16 118 -16 Q53 -16 53 37 Q53 84 110.5 137 Q168 190 268 227 L268 295 Q268 327 250 347.5 Q232 368 202 368 Q167 368 142 344.5 Q117 321 112 279 Q110 262 95.5 250 Q81 238 65 238 Q58 238 50.5 241.5 Q43 245 43 253 Q43 267 69 310 Q95 353 134 376 Q173 399 210 399 Q272 399 300 374.5 Q328 350 328 296 L328 93 Q328 70 329.5 57.5 Q331 45 340 38.5 Q349 32 358 32 Q380 32 399 63 ZM268 102 L268 205 Q204 180 163 139 Q122 98 122 64 Q122 45 134.5 32.5 Q147 20 166 20 Q193 20 230.5 47.5 Q268 75 268 102 Z" /><glyph glyph-name="b" unicode="b" d="M16 614 L19 629 L147 660 L147 364 Q228 399 290 399 Q371 399 422 342 Q473 285 473 198 Q473 100 413 42 Q353 -16 267 -16 Q223 -16 182 2 Q144 19 137 19 Q121 19 99 -21 L84 -21 L84 532 Q84 571 73 584 Q62 597 16 614 ZM147 108 Q147 64 174.5 38.5 Q202 13 249 13 Q400 13 400 179 Q400 260 357 313 Q314 366 248 366 Q205 366 176 354 Q147 342 147 326 L147 108 Z" /><glyph glyph-name="c" unicode="c" d="M390 89 L391 58 Q354 19 317 1.5 Q280 -16 228 -16 Q150 -16 97.5 45 Q45 106 45 197 Q45 296 100 347.5 Q155 399 261 399 Q316 399 350.5 383 Q385 367 385 340 Q385 326 375.5 315 Q366 304 350 304 Q324 304 294 334 Q261 367 225 367 Q182 367 149.5 320.5 Q117 274 117 204 Q117 124 159 77 Q201 30 258 30 Q323 30 390 89 Z" /><glyph glyph-name="d" unicode="d" d="M357 545 Q357 583 344.5 595.5 Q332 608 279 621 L279 637 Q343 642 395 660 L420 660 L420 68 Q420 34 430.5 26.5 Q441 19 488 18 L488 2 Q413 -15 357 -21 L357 25 Q305 4 270 -6 Q235 -16 194 -16 Q129 -16 81 41 Q33 98 33 174 Q33 267 91.5 333 Q150 399 228 399 Q306 399 357 372 L357 545 ZM357 50 L357 277 Q357 323 325 349.5 Q293 376 238 376 Q180 376 142 324 Q104 272 104 188 Q104 114 146 67.5 Q188 21 251 21 Q282 21 312 29.5 Q342 38 357 50 Z" /><glyph glyph-name="e" unicode="e" d="M387 251 L108 251 Q105 231 105 211 Q105 133 147.5 84 Q190 35 263 35 Q298 35 327 49 Q356 63 390 95 L394 71 Q324 -16 213 -16 Q140 -16 91 43 Q42 102 42 186 Q42 278 96.5 338.5 Q151 399 235 399 Q299 399 341.5 358.5 Q384 318 387 251 ZM113 272 L295 272 Q322 272 322 293 Q322 314 302 345 Q282 376 231 376 Q187 376 155 347.5 Q123 319 113 272 Z" /><glyph glyph-name="f" unicode="f" d="M180 383 L310 380 L310 345 L182 341 L182 90 Q182 29 224 23 L291 13 L291 -3 Q228 0 161 0 Q86 0 48 -3 L48 12 L79 19 Q107 25 113.5 35 Q120 45 120 82 L120 329 Q100 333 47 335 L47 350 Q94 370 106 381 Q118 392 118 412 Q118 421 125 475.5 Q132 530 163 573.5 Q194 617 230.5 638.5 Q267 660 320 660 Q403 660 403 618 Q403 603 392.5 594 Q382 585 365 585 Q349 585 331 593 Q283 614 259 614 Q239 614 220 601 Q201 588 193 575.5 Q185 563 182 535.5 Q179 508 179 444 Q179 399 180 383 Z" /><glyph glyph-name="g" unicode="g" d="M164 -38 Q120 -21 95 2 Q70 25 70 45 Q70 61 80.5 70 Q91 79 119 87 Q144 95 172 107 Q124 134 101.5 166.5 Q79 199 79 244 Q79 309 125.5 354 Q172 399 243 399 Q275 399 298 391.5 Q321 384 350 366 Q375 350 390 350 Q402 350 431 354 Q457 357 467 357 Q484 357 488.5 350 Q493 343 493 321 Q493 306 476 306 Q464 306 432 314 Q392 324 384 321 Q405 279 405 246 Q405 196 362.5 147 Q320 98 228 98 Q189 98 158 83 Q127 68 127 54 Q127 37 182 20 Q237 3 321 0 Q393 -2 433 -31.5 Q473 -61 473 -106 Q473 -144 445.5 -180.5 Q418 -217 359 -238.5 Q300 -260 232 -260 Q149 -260 93.5 -227.5 Q38 -195 38 -155 Q38 -92 164 -38 ZM239 382 Q144 382 144 246 Q144 185 171 150 Q198 115 240 115 Q285 115 312 149 Q339 183 339 245 Q339 308 311 345 Q283 382 239 382 ZM97 -145 Q97 -184 136 -212 Q175 -240 240 -240 Q323 -240 376 -209 Q429 -178 429 -132 Q429 -84 379 -66.5 Q329 -49 232 -49 Q163 -49 130 -80 Q97 -111 97 -145 Z" /><glyph glyph-name="h" unicode="h" d="M90 553 Q90 580 77.5 590.5 Q65 601 16 612 L16 624 Q58 626 126 660 L150 660 L150 307 Q223 399 310 399 Q363 399 395.5 363 Q428 327 428 263 L428 47 Q428 37 432 31.5 Q436 26 453 22 L497 12 L497 -4 Q435 0 401 0 Q366 0 304 -4 L304 12 L345 23 Q358 27 363.5 32 Q369 37 369 54 L369 261 Q369 303 344 328 Q319 353 275 353 Q241 353 212 333.5 Q183 314 150 272 L150 54 Q150 42 153.5 37 Q157 32 169 29 L237 12 L237 -4 Q205 0 126 0 Q47 0 15 -4 L15 12 L69 23 Q82 26 86 29.5 Q90 33 90 45 L90 553 Z" /><glyph glyph-name="i" unicode="i" d="M112 640 Q129 640 143 627 Q157 614 157 597 Q157 581 142.5 568.5 Q128 556 110 556 Q93 556 81 568 Q69 580 69 597 Q69 614 82 627 Q95 640 112 640 ZM222 -4 Q191 0 112 0 Q33 0 2 -4 L2 12 L58 23 Q89 29 89 59 L89 294 Q89 318 77 329 Q65 340 29 348 L29 362 Q100 380 133 434 L149 434 L149 56 Q149 41 153.5 34 Q158 27 171 24 L222 12 L222 -4 Z" /><glyph glyph-name="j" unicode="j" d="M105 640 Q125 640 136.5 627.5 Q148 615 148 595 Q148 575 135.5 563.5 Q123 552 103 552 Q86 552 74.5 564.5 Q63 577 63 595 Q63 615 74.5 627.5 Q86 640 105 640 ZM21 -235 Q59 -203 76 -157.5 Q93 -112 93 -40 L93 298 Q93 324 82 332.5 Q71 341 31 345 L31 364 Q105 385 137 434 L152 434 L152 -34 Q152 -94 120 -151.5 Q88 -209 29 -246 L21 -235 Z" /><glyph glyph-name="k" unicode="k" d="M478 -4 Q440 0 369 0 Q298 0 260 -4 L260 12 L306 16 Q328 18 328 27 Q328 33 320.5 43.5 Q313 54 292.5 79 Q272 104 246.5 137.5 Q221 171 210.5 182 Q200 193 191.5 197.5 Q183 202 169 202 L151 202 L151 60 Q151 35 156 28.5 Q161 22 176 19 L214 12 L214 -4 Q183 0 120 0 Q57 0 26 -4 L26 12 L63 18 Q81 20 86 27.5 Q91 35 91 60 L91 557 Q91 580 80.5 587.5 Q70 595 29 601 L29 615 Q80 625 135 660 L151 660 L151 219 Q171 219 191 231 Q211 243 244.5 270 Q278 297 291.5 311.5 Q305 326 305 335 Q305 355 241 365 L241 381 L444 381 L444 365 Q374 358 320 312 L233 237 L367 76 Q395 43 408 32.5 Q421 22 434 20 L478 12 L478 -4 Z" /><glyph glyph-name="l" unicode="l" d="M227 -3 Q178 0 116 0 Q54 0 5 -3 L5 13 L67 25 Q80 28 85 33 Q90 38 90 53 L90 561 Q90 582 78 592 Q66 602 25 614 L25 627 Q63 635 128 660 L151 660 L151 55 Q151 36 155 30.5 Q159 25 174 22 L227 13 L227 -3 Z" /><glyph glyph-name="m" unicode="m" d="M559 13 L588 19 Q612 24 622 31.5 Q632 39 632 61 L632 240 Q632 299 608.5 326 Q585 353 535 353 Q469 353 420 295 L420 69 Q420 48 424 37.5 Q428 27 446 23 L497 12 L497 -4 Q447 0 391 0 Q332 0 277 -4 L277 12 L306 19 Q334 26 346.5 34.5 Q359 43 359 64 L359 242 Q359 292 335 322 Q311 352 273 352 Q228 352 186.5 325.5 Q145 299 145 272 L145 68 Q145 44 151.5 35 Q158 26 172 23 L223 12 L223 -4 Q173 0 123 0 Q71 0 18 -4 L18 12 L47 18 Q69 23 76.5 32 Q84 41 84 62 L84 278 Q84 303 74.5 312.5 Q65 322 30 327 L30 343 Q81 356 126 417 L145 417 L145 321 Q189 361 223.5 380 Q258 399 295 399 Q342 399 367 385 Q392 371 417 326 Q451 361 486.5 380 Q522 399 568 399 Q627 399 660 363.5 Q693 328 693 262 L693 60 Q693 23 709 20 L754 12 L754 -4 Q704 0 659 0 Q599 0 559 -3 L559 13 Z" /><glyph glyph-name="n" unicode="n" d="M500 -3 Q448 0 396 0 Q344 0 292 -3 L292 13 L347 21 Q369 24 369 60 L369 257 Q369 301 344 327 Q319 353 276 353 Q212 353 151 292 L151 49 Q151 33 175 27 L234 13 L234 -3 Q197 0 126 0 Q55 0 18 -3 L18 13 L71 23 Q91 26 91 53 L91 251 Q91 282 78.5 293 Q66 304 34 309 L34 327 Q98 342 135 417 L151 417 L151 327 Q189 360 235 379.5 Q281 399 316 399 Q431 399 431 262 L431 63 Q431 44 436 34 Q441 24 456 21 L500 13 L500 -3 Z" /><glyph glyph-name="o" unicode="o" d="M248 -16 Q161 -16 100 42 Q39 100 39 193 Q39 282 100 340.5 Q161 399 260 399 Q352 399 411 337.5 Q470 276 470 185 Q470 102 407.5 43 Q345 -16 248 -16 ZM111 183 Q111 100 150 51.5 Q189 3 251 3 Q315 3 356.5 54 Q398 105 398 189 Q398 275 359 327.5 Q320 380 256 380 Q187 380 149 330 Q111 280 111 183 Z" /><glyph glyph-name="p" unicode="p" d="M139 337 Q226 399 307 399 Q382 399 428 345.5 Q474 292 474 202 Q474 111 413 47.5 Q352 -16 257 -16 Q200 -16 139 13 L139 -199 Q139 -212 147.5 -219.5 Q156 -227 181 -231 L241 -241 L241 -257 Q202 -253 126 -253 Q63 -253 12 -257 L12 -241 L54 -233 Q69 -230 73.5 -223.5 Q78 -217 78 -198 L78 303 Q78 339 65 341 L16 349 L19 363 Q69 384 89.5 398 Q110 412 124 435 L139 435 L139 337 ZM139 307 L139 88 Q139 52 172 28.5 Q205 5 257 5 Q321 5 363 52.5 Q405 100 405 168 Q405 255 368 304 Q331 353 269 353 Q208 353 139 307 Z" /><glyph glyph-name="q" unicode="q" d="M489 -257 Q438 -253 381 -253 Q356 -253 273 -256 L273 -240 L320 -231 Q342 -226 352 -217 Q362 -208 362 -186 L362 27 Q293 -16 223 -16 Q144 -16 87 49.5 Q30 115 30 195 Q30 281 89 340.5 Q148 400 232 400 Q278 400 323 380 Q353 367 368 367 Q383 367 391 380 Q399 393 404 422 L423 422 L423 -176 Q423 -204 427.5 -216.5 Q432 -229 447 -232 L489 -241 L489 -257 ZM362 131 L362 231 Q362 307 323.5 343 Q285 379 236 379 Q180 379 141 332.5 Q102 286 102 213 Q102 143 149.5 84 Q197 25 260 25 Q322 25 342 43 Q362 61 362 131 Z" /><glyph glyph-name="r" unicode="r" d="M21 -4 L21 12 L71 21 Q91 26 96.5 36 Q102 46 102 72 L102 264 Q102 284 93.5 293 Q85 302 56 308 L29 314 L31 329 Q70 343 96 361.5 Q122 380 142 422 L160 422 Q164 368 164 296 Q183 332 219 365.5 Q255 399 283 399 Q305 399 318.5 385 Q332 371 332 349 Q332 332 321 322 Q310 312 293 312 Q278 312 261 319 Q241 328 228 328 Q206 328 185 292 Q164 256 164 236 L164 70 Q164 44 172.5 35.5 Q181 27 209 23 L286 12 L286 -4 Q232 0 153 0 Q78 0 21 -4 Z" /><glyph glyph-name="s" unicode="s" d="M280 288 Q271 322 240 349 Q209 376 185 376 Q112 376 112 309 Q112 282 136 263.5 Q160 245 209 227 Q322 184 322 105 Q322 53 282 18.5 Q242 -16 183 -16 Q111 -16 65 10 L55 123 L72 123 Q86 70 121 37.5 Q156 5 196 5 Q228 5 250 25.5 Q272 46 272 77 Q272 134 178 169 Q112 194 83.5 221.5 Q55 249 55 289 Q55 340 93 369.5 Q131 399 195 399 Q252 399 293 375 L299 288 L280 288 Z" /><glyph glyph-name="t" unicode="t" d="M153 482 L165 482 L166 375 L302 378 L302 342 L166 338 L166 100 Q166 55 178.5 35 Q191 15 219 15 Q253 15 301 43 L310 29 Q289 5 261.5 -5.5 Q234 -16 187 -16 Q135 -16 119 9.5 Q103 35 103 110 L103 336 L49 335 Q35 335 35 343 Q35 350 48 356 Q91 374 110.5 397.5 Q130 421 153 482 Z" /><glyph glyph-name="u" unicode="u" d="M16 381 L144 381 L144 123 Q144 75 160.5 55 Q177 35 223 35 Q291 35 348 86 L348 327 Q348 346 333 352.5 Q318 359 256 365 L256 381 L413 381 L413 87 Q413 53 423.5 45.5 Q434 38 483 36 L484 21 L348 -15 L348 61 Q304 23 268 3.5 Q232 -16 196 -16 Q146 -16 113.5 21 Q81 58 81 119 L81 328 Q81 346 70.5 352.5 Q60 359 16 367 L16 381 Z" /><glyph glyph-name="v" unicode="v" d="M381 316 L241 -23 L227 -23 L76 318 Q64 342 57 349 Q50 356 35 359 L-6 368 L-6 384 Q17 381 108 381 Q194 381 221 384 L221 368 L159 358 Q140 355 140 343 Q140 330 158 288 L255 65 L346 291 Q356 315 356 329 Q356 356 315 362 L276 368 L276 384 Q289 381 377 381 Q455 381 478 384 L478 368 L422 360 Q406 358 399 350.5 Q392 343 381 316 Z" /><glyph glyph-name="w" unicode="w" d="M-10 384 Q12 381 89 381 Q155 381 185 384 L185 368 L145 362 Q126 358 126 343 Q126 334 131 323 L261 51 L341 213 L302 316 Q291 344 283.5 351.5 Q276 359 268 360 L226 368 L226 384 Q254 381 333 381 Q418 381 443 384 L443 368 L394 359 Q364 352 364 336 Q364 329 369 316 L467 59 L569 298 Q575 311 575 323 Q575 339 564 349 Q553 359 540 361 L499 368 L499 384 Q521 381 586 381 Q646 381 674 384 L674 368 L649 363 Q619 354 598 307 L454 -23 L438 -23 L353 183 L248 -23 L228 -23 L51 335 Q38 362 13 365 L-10 368 L-10 384 Z" /><glyph glyph-name="x" unicode="x" d="M445 -4 Q407 0 350 0 Q290 0 254 -4 L254 12 L288 21 Q313 28 313 40 Q313 49 298 68 L218 169 L144 68 Q133 54 133 44 Q133 26 172 18 L202 12 L202 -4 Q162 0 129 0 Q66 0 17 -4 L17 12 L45 19 Q72 24 90.5 40 Q109 56 131 86 L204 185 L105 305 Q61 358 46 361 L14 368 L14 384 Q35 381 112 381 Q186 381 211 384 L211 366 L175 361 Q159 358 159 348 Q159 334 182 305 L240 234 L296 307 Q309 325 309 338 Q309 358 281 363 L251 368 L251 384 Q280 380 321 380.5 Q362 381 376 381 Q417 381 430 384 L430 368 L397 362 Q374 357 356 344.5 Q338 332 316 302 L253 217 L373 62 Q401 28 417 22 L445 12 L445 -4 Z" /><glyph glyph-name="y" unicode="y" d="M3 386 Q66 381 103 381 Q162 381 204 386 L204 370 L143 358 Q128 355 128 344 Q128 340 131 331 L232 46 L325 304 Q330 317 330 328 Q330 352 312 356 L256 370 L256 386 Q301 381 341 381 Q376 381 426 386 L426 370 L394 361 Q380 357 370 344.5 Q360 332 346 294 L177 -152 Q160 -199 135 -223 Q110 -247 82 -247 Q39 -247 39 -215 Q39 -179 76 -179 Q89 -179 107 -183 Q115 -185 120 -185 Q128 -185 133.5 -180 Q139 -175 156 -145.5 Q173 -116 185.5 -81 Q198 -46 198 -35 Q198 -18 188 8 L66 331 Q58 354 40 359 L3 370 L3 386 Z" /><glyph glyph-name="z" unicode="z" d="M390 122 L368 -3 Q278 0 197 0 Q78 0 25 -3 L25 11 L311 357 L173 353 Q131 352 106.5 337 Q82 322 53 276 L41 276 L91 430 L110 430 Q105 413 105 402 Q105 388 115 382 Q125 376 164 377 L388 381 L388 360 L119 24 L194 24 Q264 24 292 29 Q320 34 337 53 Q354 72 373 122 L390 122 Z" /><glyph glyph-name="uni101" unicode="&#x101;" d="M350 534 L88 534 L88 578 L350 578 L350 534 ZM399 63 L412 56 Q383 -16 332 -16 Q301 -16 283.5 1.5 Q266 19 266 52 Q211 10 184.5 -3 Q158 -16 118 -16 Q53 -16 53 34 Q53 84 110.5 137 Q168 190 268 227 L268 295 Q268 327 250 347.5 Q232 368 199.5 368 Q167 368 142 344.5 Q117 321 112 279 Q110 262 95.5 250 Q81 238 69.5 238 Q58 238 50.5 241.5 Q43 245 43 256 Q43 267 69 310 Q95 353 134 376 Q173 399 210 399 Q272 399 300 374.5 Q328 350 328 296 L328 93 Q328 70 329.5 57.5 Q331 45 340 38.5 Q349 32 358 32 Q380 32 399 63 ZM268 102 L268 205 Q204 180 163 139 Q122 98 122 64 Q122 45 134.5 32.5 Q147 20 170 20 Q193 20 230.5 47.5 Q268 75 268 102 Z" /><glyph glyph-name="aacute" unicode="á" d="M148 480 L218 580 Q255 632 285 632 Q296 632 304.5 624.5 Q313 617 313 607 Q313 586 274 559 L159 480 L148 480 ZM399 63 L412 56 Q383 -16 332 -16 Q301 -16 283.5 1.5 Q266 19 266 52 Q211 10 184.5 -3 Q158 -16 118 -16 Q53 -16 53 34 Q53 84 110.5 137 Q168 190 268 227 L268 295 Q268 327 250 347.5 Q232 368 199.5 368 Q167 368 142 344.5 Q117 321 112 279 Q110 262 95.5 250 Q81 238 69.5 238 Q58 238 50.5 241.5 Q43 245 43 256 Q43 267 69 310 Q95 353 134 376 Q173 399 210 399 Q272 399 300 374.5 Q328 350 328 296 L328 93 Q328 70 329.5 57.5 Q331 45 340 38.5 Q349 32 358 32 Q380 32 399 63 ZM268 102 L268 205 Q204 180 163 139 Q122 98 122 64 Q122 45 134.5 32.5 Q147 20 170 20 Q193 20 230.5 47.5 Q268 75 268 102 Z" /><glyph glyph-name="uni1CE" unicode="&#x1ce;" d="M221 539 L328 650 L328 635 L235 477 L207 477 L114 635 L114 650 L221 539 ZM399 63 L412 56 Q383 -16 332 -16 Q301 -16 283.5 1.5 Q266 19 266 52 Q211 10 184.5 -3 Q158 -16 118 -16 Q53 -16 53 34 Q53 84 110.5 137 Q168 190 268 227 L268 295 Q268 327 250 347.5 Q232 368 199.5 368 Q167 368 142 344.5 Q117 321 112 279 Q110 262 95.5 250 Q81 238 69.5 238 Q58 238 50.5 241.5 Q43 245 43 256 Q43 267 69 310 Q95 353 134 376 Q173 399 210 399 Q272 399 300 374.5 Q328 350 328 296 L328 93 Q328 70 329.5 57.5 Q331 45 340 38.5 Q349 32 358 32 Q380 32 399 63 ZM268 102 L268 205 Q204 180 163 139 Q122 98 122 64 Q122 45 134.5 32.5 Q147 20 170 20 Q193 20 230.5 47.5 Q268 75 268 102 Z" /><glyph glyph-name="agrave" unicode="à" d="M281 483 L276 478 L188 537 Q117 586 117 607 Q117 616 125.5 623.5 Q134 631 145 631 Q175 631 220 568 L281 483 ZM399 63 L412 56 Q383 -16 332 -16 Q301 -16 283.5 1.5 Q266 19 266 52 Q211 10 184.5 -3 Q158 -16 118 -16 Q53 -16 53 34 Q53 84 110.5 137 Q168 190 268 227 L268 295 Q268 327 250 347.5 Q232 368 199.5 368 Q167 368 142 344.5 Q117 321 112 279 Q110 262 95.5 250 Q81 238 69.5 238 Q58 238 50.5 241.5 Q43 245 43 256 Q43 267 69 310 Q95 353 134 376 Q173 399 210 399 Q272 399 300 374.5 Q328 350 328 296 L328 93 Q328 70 329.5 57.5 Q331 45 340 38.5 Q349 32 358 32 Q380 32 399 63 ZM268 102 L268 205 Q204 180 163 139 Q122 98 122 64 Q122 45 134.5 32.5 Q147 20 170 20 Q193 20 230.5 47.5 Q268 75 268 102 Z" /><glyph glyph-name="uni113" unicode="&#x113;" d="M340 547 L78 547 L78 591 L340 591 L340 547 ZM387 251 L108 251 Q105 231 105 211 Q105 133 147.5 84 Q190 35 263 35 Q298 35 327 49 Q356 63 390 95 L394 71 Q324 -16 213 -16 Q140 -16 91 43 Q42 102 42 190 Q42 278 96.5 338.5 Q151 399 235 399 Q299 399 341.5 358.5 Q384 318 387 251 ZM113 272 L295 272 Q322 272 322 293 Q322 314 302 345 Q282 376 234.5 376 Q187 376 155 347.5 Q123 319 113 272 Z" /><glyph glyph-name="eacute" unicode="é" d="M138 480 L208 580 Q245 632 275 632 Q286 632 294.5 624.5 Q303 617 303 607 Q303 586 264 559 L149 480 L138 480 ZM387 251 L108 251 Q105 231 105 211 Q105 133 147.5 84 Q190 35 263 35 Q298 35 327 49 Q356 63 390 95 L394 71 Q324 -16 213 -16 Q140 -16 91 43 Q42 102 42 190 Q42 278 96.5 338.5 Q151 399 235 399 Q299 399 341.5 358.5 Q384 318 387 251 ZM113 272 L295 272 Q322 272 322 293 Q322 314 302 345 Q282 376 234.5 376 Q187 376 155 347.5 Q123 319 113 272 Z" /><glyph glyph-name="uni11B" unicode="&#x11b;" d="M211 539 L318 650 L318 635 L225 477 L197 477 L104 635 L104 650 L211 539 ZM387 251 L108 251 Q105 231 105 211 Q105 133 147.5 84 Q190 35 263 35 Q298 35 327 49 Q356 63 390 95 L394 71 Q324 -16 213 -16 Q140 -16 91 43 Q42 102 42 190 Q42 278 96.5 338.5 Q151 399 235 399 Q299 399 341.5 358.5 Q384 318 387 251 ZM113 272 L295 272 Q322 272 322 293 Q322 314 302 345 Q282 376 234.5 376 Q187 376 155 347.5 Q123 319 113 272 Z" /><glyph glyph-name="egrave" unicode="è" d="M303 483 L298 478 L210 537 Q139 586 139 607 Q139 616 147.5 623.5 Q156 631 167 631 Q197 631 242 568 L303 483 ZM387 251 L108 251 Q105 231 105 211 Q105 133 147.5 84 Q190 35 263 35 Q298 35 327 49 Q356 63 390 95 L394 71 Q324 -16 213 -16 Q140 -16 91 43 Q42 102 42 190 Q42 278 96.5 338.5 Q151 399 235 399 Q299 399 341.5 358.5 Q384 318 387 251 ZM113 272 L295 272 Q322 272 322 293 Q322 314 302 345 Q282 376 234.5 376 Q187 376 155 347.5 Q123 319 113 272 Z" /><glyph glyph-name="uni12B" unicode="&#x12b;" d="M206 548 L23 548 L23 592 L206 592 L206 548 ZM222 -4 Q191 0 112 0 Q33 0 2 -4 L2 12 L58 23 Q89 29 89 59 L89 294 Q89 318 77 329 Q65 340 29 348 L29 362 Q100 380 133 434 L149 434 L149 56 Q149 41 153.5 34 Q158 27 171 24 L222 12 L222 -4 Z" /><glyph glyph-name="iacute" unicode="í" d="M61 478 L131 578 Q168 630 198 630 Q209 630 217.5 622.5 Q226 615 226 605 Q226 584 187 557 L72 478 L61 478 ZM222 -4 Q191 0 112 0 Q33 0 2 -4 L2 12 L58 23 Q89 29 89 59 L89 294 Q89 318 77 329 Q65 340 29 348 L29 362 Q100 380 133 434 L149 434 L149 56 Q149 41 153.5 34 Q158 27 171 24 L222 12 L222 -4 Z" /><glyph glyph-name="uni1D0" unicode="&#x1d0;" d="M117 539 L224 650 L224 635 L131 477 L103 477 L10 635 L10 650 L117 539 ZM222 -4 Q191 0 112 0 Q33 0 2 -4 L2 12 L58 23 Q89 29 89 59 L89 294 Q89 318 77 329 Q65 340 29 348 L29 362 Q100 380 133 434 L149 434 L149 56 Q149 41 153.5 34 Q158 27 171 24 L222 12 L222 -4 Z" /><glyph glyph-name="igrave" unicode="ì" d="M200 483 L195 478 L107 537 Q35 585 35 608 Q35 616 43.5 624 Q52 632 63 632 Q93 632 139 568 L200 483 ZM222 -4 Q191 0 112 0 Q33 0 2 -4 L2 12 L58 23 Q89 29 89 59 L89 294 Q89 318 77 329 Q65 340 29 348 L29 362 Q100 380 133 434 L149 434 L149 56 Q149 41 153.5 34 Q158 27 171 24 L222 12 L222 -4 Z" /><glyph glyph-name="uni14D" unicode="&#x14d;" d="M398 534 L136 534 L136 578 L398 578 L398 534 ZM248 -16 Q161 -16 100 42 Q39 100 39 191 Q39 282 100 340.5 Q161 399 256.5 399 Q352 399 411 337.5 Q470 276 470 189 Q470 102 407.5 43 Q345 -16 248 -16 ZM111 183 Q111 100 150 51.5 Q189 3 252 3 Q315 3 356.5 54 Q398 105 398 190 Q398 275 359 327.5 Q320 380 253.5 380 Q187 380 149 330 Q111 280 111 183 Z" /><glyph glyph-name="oacute" unicode="ó" d="M150 480 L220 580 Q257 632 287 632 Q298 632 306.5 624.5 Q315 617 315 607 Q315 586 276 559 L161 480 L150 480 ZM248 -16 Q161 -16 100 42 Q39 100 39 191 Q39 282 100 340.5 Q161 399 256.5 399 Q352 399 411 337.5 Q470 276 470 189 Q470 102 407.5 43 Q345 -16 248 -16 ZM111 183 Q111 100 150 51.5 Q189 3 252 3 Q315 3 356.5 54 Q398 105 398 190 Q398 275 359 327.5 Q320 380 253.5 380 Q187 380 149 330 Q111 280 111 183 Z" /><glyph glyph-name="uni1D2" unicode="&#x1d2;" d="M257 539 L364 650 L364 635 L271 477 L243 477 L150 635 L150 650 L257 539 ZM248 -16 Q161 -16 100 42 Q39 100 39 191 Q39 282 100 340.5 Q161 399 256.5 399 Q352 399 411 337.5 Q470 276 470 189 Q470 102 407.5 43 Q345 -16 248 -16 ZM111 183 Q111 100 150 51.5 Q189 3 252 3 Q315 3 356.5 54 Q398 105 398 190 Q398 275 359 327.5 Q320 380 253.5 380 Q187 380 149 330 Q111 280 111 183 Z" /><glyph glyph-name="ograve" unicode="ò" d="M335 483 L330 478 L242 537 Q171 586 171 607 Q171 616 179.5 623.5 Q188 631 199 631 Q229 631 274 568 L335 483 ZM248 -16 Q161 -16 100 42 Q39 100 39 191 Q39 282 100 340.5 Q161 399 256.5 399 Q352 399 411 337.5 Q470 276 470 189 Q470 102 407.5 43 Q345 -16 248 -16 ZM111 183 Q111 100 150 51.5 Q189 3 252 3 Q315 3 356.5 54 Q398 105 398 190 Q398 275 359 327.5 Q320 380 253.5 380 Q187 380 149 330 Q111 280 111 183 Z" /><glyph glyph-name="uni16B" unicode="&#x16b;" d="M394 533 L132 533 L132 577 L394 577 L394 533 ZM16 381 L144 381 L144 123 Q144 75 160.5 55 Q177 35 223 35 Q291 35 348 86 L348 327 Q348 346 333 352.5 Q318 359 256 365 L256 381 L413 381 L413 87 Q413 53 423.5 45.5 Q434 38 483 36 L484 21 L348 -15 L348 61 Q304 23 268 3.5 Q232 -16 196 -16 Q146 -16 113.5 21 Q81 58 81 119 L81 328 Q81 346 70.5 352.5 Q60 359 16 367 L16 381 Z" /><glyph glyph-name="uacute" unicode="ú" d="M154 480 L224 580 Q261 632 291 632 Q302 632 310.5 624.5 Q319 617 319 607 Q319 586 280 559 L165 480 L154 480 ZM16 381 L144 381 L144 123 Q144 75 160.5 55 Q177 35 223 35 Q291 35 348 86 L348 327 Q348 346 333 352.5 Q318 359 256 365 L256 381 L413 381 L413 87 Q413 53 423.5 45.5 Q434 38 483 36 L484 21 L348 -15 L348 61 Q304 23 268 3.5 Q232 -16 196 -16 Q146 -16 113.5 21 Q81 58 81 119 L81 328 Q81 346 70.5 352.5 Q60 359 16 367 L16 381 Z" /><glyph glyph-name="uni1D4" unicode="&#x1d4;" d="M251 539 L358 650 L358 635 L265 477 L237 477 L144 635 L144 650 L251 539 ZM16 381 L144 381 L144 123 Q144 75 160.5 55 Q177 35 223 35 Q291 35 348 86 L348 327 Q348 346 333 352.5 Q318 359 256 365 L256 381 L413 381 L413 87 Q413 53 423.5 45.5 Q434 38 483 36 L484 21 L348 -15 L348 61 Q304 23 268 3.5 Q232 -16 196 -16 Q146 -16 113.5 21 Q81 58 81 119 L81 328 Q81 346 70.5 352.5 Q60 359 16 367 L16 381 Z" /><glyph glyph-name="ugrave" unicode="ù" d="M310 483 L305 478 L217 537 Q146 586 146 607 Q146 616 154.5 623.5 Q163 631 174 631 Q204 631 249 568 L310 483 ZM16 381 L144 381 L144 123 Q144 75 160.5 55 Q177 35 223 35 Q291 35 348 86 L348 327 Q348 346 333 352.5 Q318 359 256 365 L256 381 L413 381 L413 87 Q413 53 423.5 45.5 Q434 38 483 36 L484 21 L348 -15 L348 61 Q304 23 268 3.5 Q232 -16 196 -16 Q146 -16 113.5 21 Q81 58 81 119 L81 328 Q81 346 70.5 352.5 Q60 359 16 367 L16 381 Z" /><glyph glyph-name="uni1D6" unicode="&#x1d6;" d="M382 547 L120 547 L120 591 L382 591 L382 547 ZM329 429 Q313 429 300 441 Q287 453 287 470.5 Q287 488 299 500.5 Q311 513 329 513 Q347 513 359 501 Q371 489 371 471 Q371 453 359 441 Q347 429 329 429 ZM161 429 Q145 429 132 441 Q119 453 119 470.5 Q119 488 131 500.5 Q143 513 160.5 513 Q178 513 190.5 500 Q203 487 203 470.5 Q203 454 190.5 441.5 Q178 429 161 429 ZM16 381 L144 381 L144 123 Q144 75 160.5 55 Q177 35 223 35 Q291 35 348 86 L348 327 Q348 346 333 352.5 Q318 359 256 365 L256 381 L413 381 L413 87 Q413 53 423.5 45.5 Q434 38 483 36 L484 21 L348 -15 L348 61 Q304 23 268 3.5 Q232 -16 196 -16 Q146 -16 113.5 21 Q81 58 81 119 L81 328 Q81 346 70.5 352.5 Q60 359 16 367 L16 381 Z" /><glyph glyph-name="uni1D8" unicode="&#x1d8;" d="M183 534 L253 634 Q290 686 320 686 Q331 686 339.5 678.5 Q348 671 348 661 Q348 640 309 613 L194 534 L183 534 ZM329 429 Q313 429 300 441 Q287 453 287 470.5 Q287 488 299 500.5 Q311 513 329 513 Q347 513 359 501 Q371 489 371 471 Q371 453 359 441 Q347 429 329 429 ZM161 429 Q145 429 132 441 Q119 453 119 470.5 Q119 488 131 500.5 Q143 513 160.5 513 Q178 513 190.5 500 Q203 487 203 470.5 Q203 454 190.5 441.5 Q178 429 161 429 ZM16 381 L144 381 L144 123 Q144 75 160.5 55 Q177 35 223 35 Q291 35 348 86 L348 327 Q348 346 333 352.5 Q318 359 256 365 L256 381 L413 381 L413 87 Q413 53 423.5 45.5 Q434 38 483 36 L484 21 L348 -15 L348 61 Q304 23 268 3.5 Q232 -16 196 -16 Q146 -16 113.5 21 Q81 58 81 119 L81 328 Q81 346 70.5 352.5 Q60 359 16 367 L16 381 Z" /><glyph glyph-name="uni1DA" unicode="&#x1da;" d="M250 582 L357 693 L357 678 L264 520 L236 520 L143 678 L143 693 L250 582 ZM329 429 Q313 429 300 441 Q287 453 287 470.5 Q287 488 299 500.5 Q311 513 329 513 Q347 513 359 501 Q371 489 371 471 Q371 453 359 441 Q347 429 329 429 ZM161 429 Q145 429 132 441 Q119 453 119 470.5 Q119 488 131 500.5 Q143 513 160.5 513 Q178 513 190.5 500 Q203 487 203 470.5 Q203 454 190.5 441.5 Q178 429 161 429 ZM16 381 L144 381 L144 123 Q144 75 160.5 55 Q177 35 223 35 Q291 35 348 86 L348 327 Q348 346 333 352.5 Q318 359 256 365 L256 381 L413 381 L413 87 Q413 53 423.5 45.5 Q434 38 483 36 L484 21 L348 -15 L348 61 Q304 23 268 3.5 Q232 -16 196 -16 Q146 -16 113.5 21 Q81 58 81 119 L81 328 Q81 346 70.5 352.5 Q60 359 16 367 L16 381 Z" /><glyph glyph-name="uni1DC" unicode="&#x1dc;" d="M298 534 L293 529 L205 588 Q134 637 134 658 Q134 667 142.5 674.5 Q151 682 162 682 Q192 682 237 619 L298 534 ZM329 429 Q313 429 300 441 Q287 453 287 470.5 Q287 488 299 500.5 Q311 513 329 513 Q347 513 359 501 Q371 489 371 471 Q371 453 359 441 Q347 429 329 429 ZM161 429 Q145 429 132 441 Q119 453 119 470.5 Q119 488 131 500.5 Q143 513 160.5 513 Q178 513 190.5 500 Q203 487 203 470.5 Q203 454 190.5 441.5 Q178 429 161 429 ZM16 381 L144 381 L144 123 Q144 75 160.5 55 Q177 35 223 35 Q291 35 348 86 L348 327 Q348 346 333 352.5 Q318 359 256 365 L256 381 L413 381 L413 87 Q413 53 423.5 45.5 Q434 38 483 36 L484 21 L348 -15 L348 61 Q304 23 268 3.5 Q232 -16 196 -16 Q146 -16 113.5 21 Q81 58 81 119 L81 328 Q81 346 70.5 352.5 Q60 359 16 367 L16 381 Z" /><glyph glyph-name="ecircumflex" unicode="ê" d="M327 477 L216 586 L113 476 L113 492 L205 650 L234 650 L327 492 L327 477 ZM387 251 L108 251 Q105 231 105 211 Q105 133 147.5 84 Q190 35 263 35 Q298 35 327 49 Q356 63 390 95 L394 71 Q324 -16 213 -16 Q140 -16 91 43 Q42 102 42 190 Q42 278 96.5 338.5 Q151 399 235 399 Q299 399 341.5 358.5 Q384 318 387 251 ZM113 272 L295 272 Q322 272 322 293 Q322 314 302 345 Q282 376 234.5 376 Q187 376 155 347.5 Q123 319 113 272 Z" /></font>
</defs>
</svg>
